<?xml version="1.0" encoding="UTF-8"?>
<svg id="Layer_1" data-name="Layer 1" xmlns="http://www.w3.org/2000/svg" viewBox="0 0 587.15 516">
  <path d="M583.39,243.98L450.63,14.02c-5.01-8.68-14.27-14.02-24.29-14.02H160.81c-10.02,0-19.28,5.35-24.29,14.02L3.76,243.98c-5.01,8.68-5.01,19.37,0,28.05l132.76,229.95c5.01,8.68,14.27,14.02,24.29,14.02h265.53c10.02,0,19.28-5.35,24.29-14.02l132.76-229.95c5.01-8.68,5.01-19.37,0-28.05ZM190.16,435.07c0,2.25-1.8,4.05-4.05,4.05h-20.94c-2.25,0-4.06-1.8-4.06-4.05v-161.03c0-2.03,1.8-4.05,4.06-4.05h20.94c2.25,0,4.05,2.02,4.05,4.05v161.03ZM210.31,205.58l-6.75.23c-2.48,0-4.5,1.58-5.18,3.83l-8.11,29.95c-.45,1.8-2.03,2.93-3.83,2.93h-20.72c-2.7,0-4.5-2.48-3.83-5.18l25.22-93.91c.68-2.25,3.16-3.38,5.41-2.7l3.38,1.35c1.35.45,2.26,1.35,2.48,2.7l15.76,55.63c.9,2.7-1.12,5.18-3.83,5.18ZM213.24,117.29l-13.96-5.63c-1.8-.67-2.7-2.7-2.25-4.73l7.66-30.63c.45-1.8,2.02-2.93,4.05-2.93h22.75c1.8,0,3.38,1.12,3.83,2.93l43.46,161.03c.68,2.7-1.12,5.18-3.83,5.18h-20.72c-1.8,0-3.38-1.13-3.83-2.93l-32.21-116.66c-.67-2.48-2.48-4.5-4.95-5.63ZM279.57,388.67c0,27.48-22.07,45.5-49.55,49.55-1.12.22-2.7.45-4.28.67-2.48.23-4.5-1.57-4.5-4.05v-18.47c0-2.03,1.35-3.83,3.38-4.05l5.4-.68c13.06-2.7,22.75-10.36,22.75-22.97v-68.01c0-12.39-9.68-20.04-22.75-22.75l-5.4-.68c-2.03-.22-3.38-2.02-3.38-4.05v-18.47c0-2.48,2.03-4.28,4.5-4.06,1.58.23,3.16.45,4.28.68,27.48,4.05,49.55,22.07,49.55,49.32v68.01ZM353.71,292.73c0,1.57-.67,2.93-2.02,3.6-4.96,2.7-16.44,10.13-16.44,26.35v63.29c0,16.21,11.48,23.65,16.44,26.13,1.35.9,2.02,2.25,2.02,3.83v20.94c0,2.7-2.48,4.73-4.95,4.05-36.49-9.91-40.31-44.82-40.54-55.18v-64.41c.68-11.94,5.85-44.14,40.54-53.6,2.48-.68,4.95,1.35,4.95,4.05v20.94ZM353.71,96.13c0,1.57-.67,2.93-2.02,3.6-4.96,2.7-16.44,10.13-16.44,26.35v63.29c0,16.21,11.48,23.65,16.44,26.13,1.35.9,2.02,2.25,2.02,3.83v20.94c0,2.7-2.48,4.73-4.95,4.05-36.49-9.91-40.31-44.82-40.54-55.18v-64.41c.68-11.94,5.85-44.14,40.54-53.6,2.48-.67,4.95,1.35,4.95,4.06v20.95ZM426,384.39c-3.38,29.5-20.94,52.47-43.02,56.53-2.25.45-4.05-1.35-4.05-3.38v-18.69c0-2.93,1.58-5.86,4.28-7.21,8.11-4.05,14.41-14.86,16.67-28.6.22-2.71,2.7-4.73,5.4-4.73h15.31c3.38,0,5.86,2.93,5.41,6.08ZM420.59,330.79h-15.31c-2.7,0-5.18-2.03-5.4-4.73-2.25-13.51-8.56-24.55-16.67-28.6-2.7-1.35-4.28-4.06-4.28-6.98v-18.92c0-2.02,1.8-3.6,4.05-3.38,22.07,4.05,39.64,27.25,43.02,56.53.45,3.15-2.03,6.08-5.41,6.08ZM426,187.79c-3.38,29.5-20.94,52.47-43.02,56.53-2.25.45-4.05-1.35-4.05-3.38v-18.69c0-2.93,1.58-5.86,4.28-7.21,8.11-4.05,14.41-14.86,16.67-28.6.22-2.71,2.7-4.73,5.4-4.73h15.31c3.38,0,5.86,2.93,5.41,6.08ZM420.59,134.19h-15.31c-2.7,0-5.18-2.03-5.4-4.73-2.25-13.51-8.56-24.55-16.67-28.6-2.7-1.35-4.28-4.05-4.28-6.98v-18.92c0-2.03,1.8-3.6,4.05-3.38,22.07,4.06,39.64,27.25,43.02,56.53.45,3.15-2.03,6.08-5.41,6.08Z"/>
</svg>